<svg width="140" height="140" viewBox="0 0 140 140" fill="none" xmlns="http://www.w3.org/2000/svg">
  <g clip-path="url(#clip0_977_6301)">
    <path d="M146.207 -5.40167H-5.20312V142.8H146.207V-5.40167Z" fill="white" />
    <g opacity="0.2">
      <path
        d="M33.7075 22.1004C41.8915 15.9657 53.7858 15.296 62.5993 20.4662C70.1672 24.9132 75.016 32.8293 81.9811 38.1737C89.8838 44.2414 99.9296 46.5854 109.587 48.9964C117.637 51.0056 126.116 53.43 131.674 59.5914C135.626 63.958 137.635 69.7578 138.921 75.504C139.912 79.9108 140.528 84.5452 139.376 88.9252C137.528 95.9707 131.514 101.007 125.781 105.494C119.753 110.209 114.891 110.129 107.511 112.124C101.256 113.812 93.795 109.794 87.3924 108.843C73.0336 106.686 58.2595 110.142 43.7801 111.281C37.0695 111.803 30.225 113.625 23.7421 111.816C17.8083 110.155 13.0131 105.588 9.82525 100.31C6.63738 95.0331 4.84252 89.0591 3.14143 83.1254C0.730433 74.7271 -1.56002 65.6457 1.40015 57.4349C2.92712 53.2156 5.72656 49.5857 8.57957 46.13C17.3127 35.5618 23.5813 30.6058 34.096 21.8191"
        fill="#EE5938" />
    </g>
    <path opacity="0.2"
      d="M99.8091 39.1247C104.795 39.1247 108.837 35.0828 108.837 30.0969C108.837 25.1109 104.795 21.069 99.8091 21.069C94.8232 21.069 90.7812 25.1109 90.7812 30.0969C90.7812 35.0828 94.8232 39.1247 99.8091 39.1247Z"
      fill="#EE5938" />
    <path
      d="M91.3169 105.133C93.7145 99.8417 96.2461 94.6447 98.7776 89.461C99.0589 88.8985 99.3402 88.2957 99.3536 87.6662C99.3804 86.3669 98.1615 85.282 96.8756 85.1614C95.5897 85.0409 94.3307 85.6972 93.4198 86.6214C92.509 87.5456 91.9063 88.711 91.3169 89.8629C91.8125 88.6842 91.3705 86.7286 90.1382 86.0723C88.9059 85.4293 87.312 85.8847 86.2806 86.8223C85.2492 87.76 84.6599 89.0726 84.1375 90.3719C82.2623 95.1001 81.0434 100.069 80.521 105.133H91.3303H91.3169Z"
      fill="#307D3D" />
    <path
      d="M113.766 105.133C115.039 102.547 114.356 99.1452 112.212 97.1093C110.016 95.0197 106.466 94.5107 103.774 95.9171C104.243 94.5107 104.792 93.0106 104.122 91.8051C103.613 90.8942 102.501 90.4388 101.47 90.4924C100.425 90.546 99.4609 91.0148 98.5903 91.5907C96.3266 93.0909 94.5987 95.2876 93.2995 97.6718C92.0136 100.043 91.1028 102.601 90.2188 105.146H113.766V105.133Z"
      fill="#40643D" />
    <path
      d="M79.7976 104.784C80.3602 104.905 80.963 104.985 81.5389 105.146H82.1015C83.374 98.7969 84.7268 92.4614 86.0796 86.1258C86.3207 84.9873 86.5752 83.8219 86.4815 82.6566C86.3877 81.4913 85.9055 80.2992 84.9411 79.6295C83.7356 78.7856 82.0077 78.9598 80.8022 79.8036C79.5967 80.6475 78.8734 82.0539 78.5654 83.4871C78.2439 84.9203 78.2975 86.4071 78.351 87.8805C78.5654 93.5463 78.8868 99.2121 79.811 104.798L79.7976 104.784Z"
      fill="#40643D" />
    <path
      d="M83.642 105.132H88.3702C86.1869 99.6675 83.6286 94.3767 80.7488 89.2601C80.3068 88.4832 79.8514 87.6929 79.195 87.0902C78.5387 86.4874 77.6279 86.0856 76.7439 86.2329C75.4446 86.4606 74.6007 87.8135 74.3998 89.1261C74.0918 91.2424 75.0294 93.332 76.0741 95.1938C78.1101 98.8371 80.6684 102.199 83.6286 105.146L83.642 105.132Z"
      fill="#83C060" />
    <path
      d="M69.5243 104.717C69.8324 104.905 70.1673 105.039 70.5021 105.146H83.9769C81.4454 100.431 78.8602 95.7162 75.6188 91.4567C74.8151 90.3986 73.7704 89.2735 72.4309 89.3002C71.3058 89.327 70.3146 90.278 70.0601 91.3764C69.7922 92.4747 70.1673 93.6534 70.837 94.5643C71.5067 95.4751 72.4711 96.1314 73.4489 96.6806C71.1183 96.4797 68.7475 98.1138 68.1179 100.377C67.6759 101.945 68.1447 103.847 69.5243 104.717Z"
      fill="#307D3D" />
    <path
      d="M83.9904 102.4C85.0888 103.431 86.3077 104.49 87.6069 105.132H89.9911C89.5759 104.048 89.3884 102.896 89.2142 101.744C89.0133 100.364 88.8392 98.9576 88.3436 97.6584C87.848 96.3457 87.0042 95.1268 85.7585 94.4705C84.5128 93.8276 82.8653 93.8945 81.8473 94.8589C80.7891 95.8769 80.7088 97.6048 81.2713 98.9576C81.8339 100.31 82.9189 101.382 83.977 102.387L83.9904 102.4Z"
      fill="#40643D" />
    <path
      d="M89.6161 105.132H95.2015C95.4158 104.784 95.59 104.396 95.7373 104.021C96.2999 102.628 96.7687 101.181 97.1169 99.7211C97.3714 98.6496 97.559 97.4441 97.0098 96.4797C96.2329 95.1134 94.3845 94.8723 92.8173 94.8455C91.5583 94.8321 90.1116 94.9259 89.308 95.9037C88.7186 96.627 88.6517 97.645 88.6651 98.5826C88.6918 100.793 89.0133 103.003 89.6161 105.132Z"
      fill="#83C060" />
    <path
      d="M104.631 105.132C105.448 104.128 105.515 102.561 104.832 101.436C104.069 100.177 102.542 99.48 101.068 99.5202C99.5948 99.547 98.1884 100.217 97.0498 101.168C95.8042 102.212 94.8532 103.606 94.3174 105.146H104.631V105.132Z"
      fill="#307D3D" />
    <path
      d="M91.2365 105.226C91.1427 105.226 91.0624 105.159 91.0624 105.066C90.9016 102.119 90.9552 99.1452 91.2365 96.1984C91.2365 96.1046 91.3303 96.0377 91.424 96.0377C91.5178 96.0377 91.5848 96.1314 91.5848 96.2252C91.3035 99.1452 91.2499 102.105 91.4106 105.039C91.4106 105.132 91.3437 105.213 91.2499 105.226H91.2365Z"
      fill="#425040" />
    <path
      d="M82.5438 105.159C82.5438 105.159 82.4768 105.159 82.45 105.132C79.9318 103.512 74.9893 100.739 70.1539 100.458C70.0601 100.458 69.9798 100.364 69.9932 100.27C69.9932 100.177 70.0735 100.096 70.1807 100.11C75.0964 100.391 80.106 103.19 82.6509 104.838C82.7313 104.891 82.7581 104.999 82.7045 105.079C82.6777 105.132 82.6107 105.159 82.5571 105.159H82.5438Z"
      fill="#425040" />
    <path
      d="M82.5437 105.159C82.5437 105.159 82.4231 105.132 82.3964 105.066C80.347 101.195 76.2751 95.7162 72.9399 92.3274C72.8729 92.2604 72.8729 92.1533 72.9399 92.0863C73.0068 92.0193 73.114 92.0193 73.181 92.0863C76.543 95.4885 80.6283 101.007 82.691 104.905C82.7312 104.985 82.691 105.092 82.6241 105.132C82.5973 105.146 82.5705 105.159 82.5437 105.159Z"
      fill="#425040" />
    <path
      d="M92.5897 105.159C92.5897 105.159 92.5897 105.159 92.5763 105.159C92.4825 105.159 92.4155 105.065 92.4155 104.972L92.8441 99.5336C92.8441 99.4398 92.9379 99.3729 93.0317 99.3729C93.1254 99.3729 93.1924 99.4666 93.1924 99.5604L92.7638 104.999C92.7638 105.092 92.6834 105.159 92.5897 105.159Z"
      fill="#425040" />
    <path
      d="M97.7733 105.159C97.7733 105.159 97.7198 105.159 97.7064 105.146C97.6126 105.106 97.5858 104.999 97.626 104.918C98.3761 103.257 99.6486 101.824 101.216 100.886C101.296 100.833 101.403 100.86 101.457 100.94C101.51 101.02 101.484 101.128 101.403 101.181C99.903 102.079 98.6708 103.458 97.9475 105.052C97.9207 105.119 97.8537 105.159 97.7867 105.159H97.7733Z"
      fill="#425040" />
    <path
      d="M68.0777 102.802C33.5468 102.802 5.53906 105.414 5.53906 108.642C5.53906 110.691 16.7636 112.486 33.7745 113.531C33.5334 113.839 33.3995 114.16 33.3995 114.482C33.3995 117.187 42.1461 119.371 52.942 119.371C63.7379 119.371 72.4845 117.187 72.4845 114.482C72.4845 114.482 72.4845 114.482 72.4845 114.468C79.6237 114.428 86.4147 114.267 92.6967 114.013C93.6343 115.527 98.8581 116.692 105.18 116.692C112.159 116.692 117.811 115.272 117.811 113.531C117.811 113.102 117.463 112.687 116.82 112.299C125.446 111.294 130.603 110.021 130.603 108.642C130.603 105.414 102.609 102.802 68.0643 102.802H68.0777Z"
      fill="#DCAE7A" />
    <path
      d="M27.1444 115.942C24.72 115.942 22.751 116.437 22.751 117.04C22.751 117.643 24.72 118.139 27.1444 118.139C29.5687 118.139 31.5377 117.643 31.5377 117.04C31.5377 116.437 29.5687 115.942 27.1444 115.942Z"
      fill="#DCAE7A" />
    <path
      d="M73.8775 122.599C79.1889 122.599 83.4947 121.879 83.4947 120.992C83.4947 120.104 79.1889 119.384 73.8775 119.384C68.566 119.384 64.2603 120.104 64.2603 120.992C64.2603 121.879 68.566 122.599 73.8775 122.599Z"
      fill="#DCAE7A" />
    <path
      d="M121.656 116.746C123.313 116.746 124.656 116.386 124.656 115.942C124.656 115.498 123.313 115.138 121.656 115.138C119.999 115.138 118.655 115.498 118.655 115.942C118.655 116.386 119.999 116.746 121.656 116.746Z"
      fill="#DCAE7A" />
    <path d="M90.741 54.2737H88.7051V107.651H90.741V54.2737Z" fill="#C6C6C5" />
    <path
      d="M86.843 22.0736L69.7115 51.7422C68.4257 53.9657 70.033 56.7384 72.5913 56.7384H106.841C109.399 56.7384 111.007 53.9657 109.721 51.7422L92.5892 22.0736C91.3034 19.8501 88.1021 19.8501 86.8296 22.0736H86.843Z"
      fill="#F0EFEF" stroke="#F0F0EF" stroke-width="4" stroke-miterlimit="10" />
    <path
      d="M86.843 22.1272L69.7115 51.7959C68.4257 54.0193 70.033 56.792 72.5913 56.792H106.841C109.399 56.792 111.007 54.0193 109.721 51.7959L92.5892 22.1272C91.3034 19.9037 88.1021 19.9037 86.8296 22.1272H86.843Z"
      fill="#EF3F3F" />
    <path
      d="M91.4373 49.8269C91.4373 50.7645 90.6738 51.5413 89.7228 51.5413C88.7718 51.5413 88.0083 50.7779 88.0083 49.8269C88.0083 48.8758 88.7718 48.1124 89.7228 48.1124C90.6738 48.1124 91.4373 48.8758 91.4373 49.8269Z"
      fill="white" />
    <path
      d="M89.7227 46.4649C88.9459 46.4649 88.3163 45.8621 88.2761 45.0852L87.6868 32.2668C87.6332 31.1015 88.5574 30.1371 89.7227 30.1371C90.8881 30.1371 91.8123 31.1015 91.7587 32.2668L91.1693 45.0852C91.1292 45.8621 90.4996 46.4649 89.7227 46.4649Z"
      fill="white" />
    <path
      d="M53.4105 23.6809C53.2766 23.6407 53.1962 23.4532 53.1828 23.1049C53.1694 22.7567 53.1828 22.4352 53.2632 22.1271C53.2766 22.0602 53.3703 22.0066 53.5445 21.953C53.7186 21.8994 53.9731 21.886 54.2946 21.8994C54.616 21.8994 54.9643 21.9664 55.3259 22.0468C56.7324 22.395 57.3083 23.0647 57.0672 24.0425C57.0002 24.3238 56.8797 24.5515 56.719 24.7257C56.5582 24.8998 56.3841 25.0069 56.1966 25.0605C55.8215 25.1543 55.5001 25.1811 55.2188 25.1141L55.0447 25.0739C55.0447 25.0739 55.0179 25.2212 55.0179 25.3418C55.0179 25.4623 55.0045 25.5695 54.9777 25.6633C54.9643 25.7436 54.8036 25.7704 54.5357 25.7436C54.2544 25.7168 54.0267 25.6767 53.8258 25.6365C53.5311 25.5561 53.357 25.4356 53.3302 25.2748C53.29 25.1141 53.3302 24.7926 53.4641 24.3104C53.4909 24.2033 53.7186 24.1631 54.1606 24.2167C54.3214 24.2301 54.4821 24.2167 54.6294 24.1765C54.7768 24.1363 54.8705 24.0425 54.9107 23.9086C54.9509 23.7746 54.8571 23.6809 54.6294 23.6139C54.4151 23.5603 54.1606 23.5603 53.8927 23.6139C53.6248 23.6675 53.4641 23.6809 53.4373 23.6809H53.4105ZM54.0669 25.9713C54.4017 26.0517 54.6428 26.1589 54.8036 26.2928C54.9643 26.4267 55.0045 26.6277 54.9375 26.8955C54.8303 27.3376 54.4285 27.4715 53.7454 27.2974C53.0623 27.1233 52.7676 26.8152 52.8881 26.3732C52.9953 25.9311 53.3971 25.7972 54.0803 25.9713H54.0669Z"
      fill="#EE5938" />
    <path
      d="M58.2458 25.1677C58.1252 25.0605 58.1386 24.8194 58.2994 24.4444C58.4601 24.0693 58.661 23.7479 58.8887 23.48C58.9423 23.413 59.0762 23.413 59.2771 23.4532C59.4781 23.4934 59.7459 23.6005 60.0808 23.7881C60.4157 23.9622 60.7371 24.2033 61.072 24.4846C62.3445 25.5829 62.599 26.5741 61.8355 27.4581C61.6212 27.7126 61.3801 27.8868 61.1122 27.9805C60.8443 28.0743 60.6032 28.1011 60.3889 28.0609C59.9469 27.9671 59.5986 27.8198 59.3575 27.6055L59.1968 27.4849C59.1968 27.4849 59.103 27.6189 59.036 27.7528C58.9691 27.8734 58.9021 27.9805 58.8351 28.0609C58.7682 28.1279 58.6074 28.0877 58.3261 27.9136C58.0583 27.7394 57.8305 27.5787 57.643 27.4314C57.3751 27.2036 57.268 26.9893 57.3082 26.8018C57.3617 26.6143 57.5627 26.3062 57.9377 25.8776C58.0315 25.7704 58.286 25.8642 58.7012 26.1455C58.8619 26.2392 59.036 26.3062 59.2102 26.3464C59.3843 26.3732 59.5316 26.333 59.6388 26.1991C59.746 26.0785 59.7058 25.9312 59.5048 25.757C59.3039 25.5829 59.0494 25.4624 58.7414 25.3686C58.4333 25.2882 58.2592 25.2213 58.2324 25.1945L58.2458 25.1677ZM57.7368 27.8734C58.0449 28.1279 58.2324 28.369 58.3261 28.5833C58.4199 28.7976 58.3663 29.0253 58.152 29.2664C57.8038 29.6682 57.3216 29.6013 56.7054 29.0655C56.0893 28.5297 55.9419 28.0609 56.2902 27.6591C56.6384 27.2572 57.1206 27.3242 57.7368 27.86V27.8734Z"
      fill="#EE5938" />
    <path
      d="M59.8531 100.002L58.1118 97.4708L64.1527 93.3989L66.8048 95.676L62.7463 100.404L59.8531 100.002Z"
      fill="#F58462" />
    <path d="M48.1061 97.886L48.1865 102.279L40.4043 102.199L40.7392 97.4708L48.1061 97.886Z"
      fill="#F58462" />
    <path
      d="M58.8086 108.615C58.9827 108.588 59.0899 108.428 59.0631 108.253C58.9157 107.41 58.4201 105.066 57.0941 104.074C55.46 102.855 52.0444 102.36 50.8121 101.543C49.5664 100.726 48.1868 98.7567 47.4367 99.1318C46.7 99.5068 45.2936 101.221 43.2844 100.967C41.2753 100.712 40.3377 100.23 39.7885 100.726C39.2393 101.208 38.9312 108.052 39.1723 108.468C39.4001 108.87 42.2531 108.494 42.4942 108.561C42.7353 108.628 43.4452 106.994 43.9006 107.249C44.356 107.503 44.9319 108.253 45.6151 108.615C46.258 108.937 56.7726 108.896 58.8086 108.615Z"
      fill="#EE5938" />
    <path
      d="M53.156 73.2804L52.1648 54.622L40.0027 54.5416C40.0027 54.5416 38.5159 59.3502 38.1006 63.9981C37.6854 68.646 36.6139 98.1405 36.7746 98.5424C36.9353 98.9442 50.4235 99.4398 51.254 98.9442C52.0844 98.462 53.156 73.2804 53.156 73.2804Z"
      fill="#F9B517" />
    <path
      d="M79.4224 95.7832C79.5563 95.676 79.5563 95.4617 79.4224 95.3411C78.833 94.725 77.065 93.0641 75.3907 92.9837C73.3279 92.8766 70.1936 94.3767 68.6934 94.3901C67.1933 94.4035 64.9028 93.5463 64.501 94.2696C64.0992 94.9929 63.8982 97.1896 62.0766 98.1138C60.255 99.038 59.1968 99.1452 59.0227 99.8551C58.8485 100.565 62.4784 106.405 62.907 106.606C63.3357 106.82 65.4922 104.918 65.7467 104.838C65.9878 104.757 65.6529 103.016 66.1753 102.963C66.6977 102.909 67.6085 103.217 68.3854 103.137C69.1087 103.056 77.8686 97.1494 79.4224 95.7965V95.7832Z"
      fill="#EE5938" />
    <path
      d="M54.3078 54.4479C54.3078 54.4479 68.6265 91.5237 68.4524 92.3274C68.2916 93.1444 57.3618 98.9308 56.7054 98.9308C56.0491 98.9308 51.2405 90.5325 51.2405 90.5325L50.6646 54.5149L54.3078 54.4345V54.4479Z"
      fill="#F9B517" />
    <path
      d="M48.1865 102.387C48.1865 102.387 48.1195 102.373 48.0927 102.346C48.0525 102.293 48.0659 102.226 48.1195 102.199L50.0081 100.886C50.0081 100.886 50.1287 100.86 50.1554 100.913C50.1956 100.967 50.1822 101.034 50.1287 101.061L48.24 102.373C48.24 102.373 48.1999 102.387 48.1731 102.387H48.1865Z"
      fill="white" />
    <path
      d="M50.0754 103.15C50.0754 103.15 50.0084 103.137 49.995 103.11C49.9549 103.056 49.9683 103.003 50.0218 102.963L51.5086 101.837C51.5086 101.837 51.6292 101.811 51.656 101.864C51.6961 101.918 51.6827 101.971 51.6292 102.012L50.1424 103.137C50.1424 103.137 50.1022 103.163 50.0754 103.163V103.15Z"
      fill="white" />
    <path
      d="M67.0061 96.4663C67.0061 96.4663 66.9659 96.4663 66.9525 96.4529C66.8989 96.4261 66.8855 96.3591 66.9257 96.3055L68.1714 94.3767C68.1714 94.3767 68.2652 94.3098 68.3187 94.3499C68.3723 94.3767 68.3857 94.4437 68.3455 94.4973L67.0998 96.4261C67.0998 96.4261 67.0463 96.4796 67.0061 96.4796V96.4663Z"
      fill="white" />
    <path
      d="M69.5105 95.9171C69.5105 95.9171 69.4703 95.917 69.4569 95.9037C69.4033 95.8769 69.3899 95.8099 69.4167 95.7563L70.3677 94.149C70.3677 94.149 70.4615 94.082 70.5151 94.1088C70.5686 94.1356 70.582 94.2026 70.5552 94.2561L69.6042 95.8635C69.6042 95.8635 69.5507 95.9171 69.5105 95.9171Z"
      fill="white" />
    <path
      d="M40.9938 59.6851C40.7929 59.6851 40.592 59.6583 40.3911 59.6181C40.3375 59.6181 40.2973 59.5512 40.3107 59.4842C40.3107 59.4306 40.3777 59.3904 40.4446 59.4038C42.7351 59.9396 44.1951 56.9794 44.2085 56.9526C44.2353 56.8991 44.3022 56.8723 44.3558 56.8991C44.4094 56.9258 44.4362 56.9928 44.4094 57.0464C44.396 57.0732 43.1101 59.6851 41.0072 59.6851H40.9938Z"
      fill="white" />
    <path
      d="M39.8152 98.9977C39.8152 98.9977 39.708 98.9442 39.708 98.8906C39.708 98.7433 39.8687 84.0362 40.2974 75.3298C40.726 66.61 41.7038 59.4976 41.7038 59.4172C41.7038 59.3636 41.7708 59.3234 41.8243 59.3234C41.8779 59.3234 41.9181 59.3904 41.9181 59.444C41.9181 59.5109 40.9403 66.6234 40.5117 75.3298C40.0831 84.0362 39.9223 98.7433 39.9223 98.8906C39.9223 98.9442 39.8687 98.9977 39.8152 98.9977Z"
      fill="white" />
    <path
      d="M52.1114 92.1399C52.1114 92.1399 52.0042 92.0997 52.0042 92.0327L50.5576 61.6943C50.5576 61.6943 50.571 61.6273 50.6112 61.6006L53.8125 59.4842C53.8125 59.4842 53.933 59.4708 53.9598 59.511C53.9866 59.5646 53.9732 59.6316 53.933 59.6584L50.7719 61.7479L52.2185 92.0327C52.2185 92.0327 52.1783 92.1399 52.1114 92.1399Z"
      fill="white" />
    <path
      d="M59.063 97.5779C59.063 97.5779 58.996 97.5645 58.9692 97.5243L51.6826 85.1077C51.6826 85.1077 51.6826 84.9872 51.7228 84.9604C51.7764 84.9336 51.8433 84.9604 51.8701 85.0006L59.1567 97.4172C59.1567 97.4172 59.1567 97.5378 59.1165 97.5645C59.1031 97.5645 59.0763 97.5779 59.063 97.5779Z"
      fill="#FABB4A" />
    <path
      d="M48.3877 34.4634C48.3877 34.4634 51.4818 34.5973 52.7141 37.0887C53.9464 39.58 54.8706 54.3407 54.8706 54.3407C54.8706 54.3407 51.4416 55.8543 46.4321 55.7873C41.4226 55.7203 39.7349 54.4211 39.7349 54.4211L38.7705 45.3129C38.7705 45.3129 39.1723 35.709 40.418 35.0393C41.6637 34.3696 46.325 33.9276 48.4011 34.4634H48.3877Z"
      fill="#2370B5" />
    <path
      d="M48.3607 26.5339C48.3607 26.5339 49.9279 23.4934 48.4545 22.9442C46.9677 22.395 45.3336 24.1095 45.3336 24.1095C45.3336 24.1095 42.1055 24.5917 40.9804 26.3999C39.8553 28.2082 43.0565 31.0612 43.0565 31.0612L48.3607 26.5339Z"
      fill="#010101" />
    <path
      d="M43.6729 31.6907V34.6911C43.6729 34.6911 44.1952 35.5483 45.9499 35.6956C47.2492 35.8028 47.718 35.5081 47.718 35.5081L47.5438 33.9945L47.3697 32.5212L44.2086 31.8113L43.6729 31.6907Z"
      fill="#F9B19F" />
    <path
      d="M44.1953 31.8113C44.1953 31.8916 44.2355 31.9854 44.2757 32.106C44.9454 33.6061 46.767 33.9276 47.5305 34.008L47.3564 32.5346L44.1953 31.8247V31.8113Z"
      fill="#010101" />
    <path
      d="M48.0527 25.69C48.0527 25.69 49.6198 29.4538 48.9903 31.53C48.3607 33.6195 46.4587 33.2445 45.3336 32.8292C44.1951 32.4006 43.6861 31.6907 43.6861 31.6907C43.6861 31.6907 42.6145 32.039 41.918 31.021C41.2215 30.0164 41.6769 28.8913 42.2931 28.6368C42.9092 28.3823 43.6191 28.8377 43.6191 28.8377L43.0699 27.7394C43.0699 27.7394 45.5613 22.2744 48.0527 25.6766V25.69Z"
      fill="#F9B19F" />
    <path
      d="M43.4985 30.445C43.4985 30.445 43.4583 30.445 43.4316 30.4182L42.0787 29.4404C42.0787 29.4404 42.0251 29.3333 42.0519 29.2931C42.0921 29.2395 42.1591 29.2395 42.1993 29.2663L43.5521 30.2441C43.5521 30.2441 43.6057 30.3513 43.5789 30.3914C43.5521 30.4182 43.5253 30.4316 43.4985 30.4316V30.445Z"
      fill="#010101" />
    <path
      d="M42.2663 30.4316C42.2663 30.4316 42.1725 30.4049 42.1591 30.3513C42.1457 30.2977 42.1725 30.2307 42.2395 30.2173L43.1235 29.9896C43.1235 29.9896 43.2441 30.003 43.2575 30.07C43.2708 30.1236 43.2441 30.1905 43.1771 30.2039L42.2931 30.4316C42.2931 30.4316 42.2797 30.4316 42.2663 30.4316Z"
      fill="#010101" />
    <path
      d="M47.9323 29.9628C47.9323 29.9628 47.9323 29.9628 47.9189 29.9628C47.8653 29.9628 47.8251 29.8959 47.8251 29.8423C47.959 28.9449 47.3965 28.4627 47.3697 28.4359C47.3295 28.3957 47.3161 28.3287 47.3563 28.2885C47.3965 28.2484 47.4634 28.235 47.5036 28.2751C47.5304 28.3019 48.2001 28.8511 48.0394 29.8825C48.0394 29.9361 47.9858 29.9762 47.9323 29.9762V29.9628Z"
      fill="#010101" />
    <path
      d="M48.428 28.4627C48.428 28.4627 48.3342 28.4359 48.3208 28.3824L48.1333 27.6992C48.1333 27.6992 48.1467 27.5787 48.2137 27.5653C48.2672 27.5519 48.3342 27.5787 48.3476 27.6457L48.5351 28.3288C48.5351 28.3288 48.5217 28.4493 48.4548 28.4627C48.4548 28.4627 48.4414 28.4627 48.428 28.4627Z"
      fill="#010101" />
    <path
      d="M46.5256 28.5832C46.5256 28.5832 46.4319 28.5564 46.4185 28.5028L46.231 27.8197C46.231 27.8197 46.2444 27.6992 46.3113 27.6858C46.3649 27.6724 46.4319 27.6992 46.4453 27.7661L46.6328 28.4493C46.6328 28.4493 46.6194 28.5698 46.5524 28.5832C46.5524 28.5832 46.539 28.5832 46.5256 28.5832Z"
      fill="#010101" />
    <path
      d="M48.361 26.5339C48.361 26.5339 48.0395 25.9311 47.2894 25.9177C46.5394 25.9177 46.1107 26.4401 46.1107 26.4401C46.1107 26.4401 46.4322 27.6992 45.4142 28.3689C44.3962 29.0386 43.606 28.8511 43.606 28.8511L42.8693 28.5832L42.3335 27.5117L44.4766 25.2212L47.2359 23.7746L48.6423 25.0605L48.361 26.5607V26.5339Z"
      fill="#010101" />
    <path
      d="M45.3339 24.1095C45.3339 24.1095 45.2402 22.4486 43.4989 23.1853C41.7576 23.9086 41.8915 26.1722 41.8915 26.1722L45.3339 24.1095Z"
      fill="#010101" />
    <path
      d="M48.4946 26.6678L47.9186 26.6143C47.865 26.6143 47.8114 26.5607 47.8248 26.4937C47.8248 26.4401 47.8784 26.3865 47.9454 26.3999L48.5079 26.4535C48.5079 26.4535 48.6151 26.5071 48.6017 26.5741C48.6017 26.6276 48.5481 26.6678 48.4946 26.6678Z"
      fill="#010101" />
    <path
      d="M45.9363 27.4447C45.9363 27.4447 45.8559 27.418 45.8425 27.3778C45.8158 27.3242 45.8425 27.2572 45.8961 27.2438L46.6596 26.909C46.6596 26.909 46.7802 26.909 46.7935 26.9625C46.8203 27.0161 46.7935 27.0831 46.74 27.0965L45.9765 27.4313C45.9765 27.4313 45.9497 27.4313 45.9363 27.4313V27.4447Z"
      fill="#010101" />
    <path
      d="M48.2136 30.9809C48.2136 30.9809 48.1734 30.9809 48.16 30.9675C48.1064 30.9407 48.093 30.8738 48.1332 30.8202L48.5618 30.1505C48.5618 30.1505 48.6556 30.0835 48.7092 30.1237C48.7628 30.1505 48.7762 30.2174 48.736 30.271L48.3074 30.9407C48.3074 30.9407 48.2538 30.9943 48.2136 30.9943V30.9809Z"
      fill="#010101" />
    <path
      d="M42.3333 34.5169C42.3333 34.5169 37.7122 34.5169 35.1807 41.8973C33.6403 46.3844 34.2565 49.8937 34.2565 49.8937L42.1592 46.9336L42.3333 34.5169Z"
      fill="#2370B5" />
    <path
      d="M52.6069 46.5854C52.6069 46.5854 52.2452 44.2279 51.7898 42.1116C51.3344 39.9953 50.812 36.794 50.812 36.794L53.1159 34.0883C53.1159 34.0883 57.7369 39.5399 58.9558 44.603C60.1613 49.6661 59.2639 51.2198 56.6788 50.9118C53.6248 50.5367 52.6069 46.5988 52.6069 46.5988V46.5854Z"
      fill="#EFA192" />
    <path
      d="M35.3412 49.4652C35.3412 49.4652 35.9842 53.3629 41.5429 53.738C46.0032 54.0461 53.4773 51.7556 53.4773 51.7556C53.4773 51.7556 57.0268 51.8092 57.9778 51.3672C58.9422 50.9252 59.0628 50.3224 59.0628 50.3224C59.0628 50.3224 59.7191 49.6929 59.6789 49.358C59.6388 49.0231 59.2637 47.4828 59.2637 47.4828C59.2637 47.4828 59.7995 46.2237 59.3039 46.1567C58.8217 46.0898 57.9778 45.9692 57.9778 45.9692C57.9778 45.9692 56.4107 45.2727 55.7276 45.4736C55.0445 45.6745 53.2362 47.3354 53.2362 47.3354L42.1322 46.9336L35.3145 49.4786L35.3412 49.4652Z"
      fill="#F9B19F" />
    <path
      d="M42.1594 47.0273C42.1594 47.0273 42.0522 46.9737 42.0522 46.9201V43.7189C42.0522 43.7189 42.079 43.6117 42.146 43.6117C42.213 43.6117 42.2532 43.6653 42.2532 43.7189V46.9201C42.2532 46.9201 42.2264 47.0273 42.1594 47.0273Z"
      fill="white" />
    <path
      d="M46.2578 35.7895C46.0837 35.7895 45.8828 35.7895 45.6819 35.7627C44.0745 35.6556 43.3512 34.6108 43.3111 34.5572C43.2843 34.5036 43.2843 34.4367 43.3378 34.4099C43.3914 34.3831 43.4584 34.3831 43.4852 34.4367C43.4852 34.4367 44.1817 35.4412 45.6819 35.5484C47.1954 35.6556 47.758 35.3207 47.758 35.3207C47.8116 35.2939 47.8786 35.3073 47.9053 35.3609C47.9321 35.4145 47.9187 35.4814 47.8652 35.5082C47.8384 35.5082 47.3964 35.7895 46.231 35.7895H46.2578Z"
      fill="white" />
    <path
      d="M53.1156 34.0883C53.1156 34.0883 51.7493 29.2797 51.0394 29.3601C50.3295 29.4405 48.9097 30.8603 48.6284 31.3827C48.3471 31.905 48.6284 32.5614 48.6284 32.5614C48.6284 32.5614 48.3471 32.9096 48.6284 33.1373C48.9097 33.365 49.7134 32.8828 49.7134 32.8828C49.7134 32.8828 49.0035 36.4458 51.093 36.8744C53.1825 37.303 53.1156 34.0749 53.1156 34.0749V34.0883Z"
      fill="#EFA192" />
    <path
      d="M55.7409 46.3711C55.7409 46.3711 55.6472 46.3443 55.6338 46.2907C55.6204 46.2371 55.6472 46.1701 55.7008 46.1568L57.4152 45.6478C57.4152 45.6478 57.5358 45.6612 57.5492 45.7147C57.5626 45.7683 57.5358 45.8353 57.4822 45.8487L55.7677 46.3577H55.7409V46.3711Z"
      fill="#010101" />
    <path
      d="M58.8218 47.5498C58.8218 47.5498 58.7415 47.523 58.7281 47.4962C58.7013 47.4427 58.7281 47.3757 58.7683 47.3489L59.371 47.014C59.371 47.014 59.4916 47.014 59.5183 47.0542C59.5451 47.1078 59.5183 47.1748 59.4782 47.2016L58.8754 47.5364C58.8754 47.5364 58.8352 47.5364 58.8218 47.5364V47.5498Z"
      fill="#010101" />
    <path
      d="M48.6422 32.3872C48.6422 32.3872 48.5753 32.3738 48.5619 32.3471C48.5217 32.3069 48.5351 32.2399 48.5753 32.1997L50.129 30.9808C50.129 30.9808 50.2362 30.954 50.2763 30.9942C50.3165 31.0344 50.3031 31.1014 50.263 31.1416L48.7092 32.3605C48.7092 32.3605 48.669 32.3872 48.6422 32.3872Z"
      fill="#010101" />
    <path
      d="M48.8699 31.1684C48.8699 31.1684 48.8029 31.155 48.7761 31.1148C48.7494 31.0612 48.7628 30.9942 48.8029 30.9674L50.129 30.1102C50.129 30.1102 50.2495 30.0968 50.2763 30.137C50.3031 30.1906 50.2897 30.2575 50.2495 30.2843L48.9235 31.1416C48.9235 31.1416 48.8833 31.155 48.8699 31.155V31.1684Z"
      fill="#010101" />
  </g>
  <defs>
    <clipPath id="clip0_977_6301">
      <rect width="140" height="140" fill="white" />
    </clipPath>
  </defs>
</svg>
  